<svg xmlns="http://www.w3.org/2000/svg" viewBox="0 0 120 50" fill="none">
  <path d="M29.4 25.7c0-.8-.1-1.6-.2-2.3H18v4.4h6.4c-.3 1.5-1.1 2.7-2.4 3.5v2.9h3.8c2.3-2.1 3.6-5.2 3.6-8.5z" fill="#4285F4"/>
  <path d="M18 35c3.2 0 5.9-1.1 7.9-2.9l-3.8-2.9c-1.1.7-2.4 1.1-4 1.1-3.1 0-5.7-2.1-6.6-4.9H7.4v3c2 3.9 6 6.6 10.6 6.6z" fill="#34A853"/>
  <path d="M11.4 25.4c-.2-.7-.4-1.5-.4-2.4 0-.8.1-1.6.4-2.4v-3H7.4c-.9 1.7-1.4 3.5-1.4 5.4s.5 3.8 1.4 5.4l4-3z" fill="#FBBC05"/>
  <path d="M18 15.7c1.7 0 3.3.6 4.5 1.8l3.4-3.4C23.9 12.2 21.2 11 18 11c-4.6 0-8.6 2.7-10.6 6.6l4 3c.9-2.8 3.5-4.9 6.6-4.9z" fill="#EA4335"/>
  <text x="36" y="29" font-family="system-ui" font-weight="600" font-size="11" fill="#5f6368">Pay</text>
</svg>
